+ filenameToUse=/home/horvathandras/vatic/vatic/public/videouploads/DJI_0026_30m_szeldontes_vadvalto_arpa_homokmegy_20180603_napos_kalaszos_T4.avi
+ filenameNoDot=DJI_0026_30m_szeldontes_vadvalto_arpa_homokmegy_20180603_napos_kalaszos_T4
+ FullUploadPath=/home/horvathandras/vatic/vatic/public/videouploads/DJI_0026_30m_szeldontes_vadvalto_arpa_homokmegy_20180603_napos_kalaszos_T4.avi
+ VideoDataDir=/home/horvathandras/vatic/vatic/videos
+ AvailableObjectTypes='PozitívROI NegatívROI Túrás ~Friss ~1-2Hetes ~Régebbi ~Egyéb1 ~Egyéb2 ~Egyéb3 Rágás ~Friss ~1-2Hetes ~Régebbi ~Egyéb1 ~Egyéb2 ~Egyéb3 Törés ~Friss ~1-2Hetes ~Régebbi ~Egyéb1 ~Egyéb2 ~Egyéb3 Taposás ~Friss ~1-2Hetes ~Régebbi ~Egyéb1 ~Egyéb2 ~Egyéb3 EgészségesNövény Egyéb1 Egyéb2 Egyéb3 Egyéb4 Egyéb5 Bizonytalan Művelőút Gktaposás Vetőhiba Széldöntés Jégkár Belvíz Aszály Erózió EgyszikűGyom KétszikűGyom EgyébNövvédelmiPR'
++ dirname /home/horvathandras/vatic/vatic/vatic_publisher.sh
+ cd /home/horvathandras/vatic/vatic
+ touch /home/horvathandras/vatic/vatic/public/videouploads/DJI_0026_30m_szeldontes_vadvalto_arpa_homokmegy_20180603_napos_kalaszos_T4.avi
+ chmod 744 /home/horvathandras/vatic/vatic/public/videouploads/DJI_0026_30m_szeldontes_vadvalto_arpa_homokmegy_20180603_napos_kalaszos_T4.avi
+ mkdir /home/horvathandras/vatic/vatic/videos/DJI_0026_30m_szeldontes_vadvalto_arpa_homokmegy_20180603_napos_kalaszos_T4
mkdir: cannot create directory '/home/horvathandras/vatic/vatic/videos/DJI_0026_30m_szeldontes_vadvalto_arpa_homokmegy_20180603_napos_kalaszos_T4': File exists
+ turkic extract /home/horvathandras/vatic/vatic/public/videouploads/DJI_0026_30m_szeldontes_vadvalto_arpa_homokmegy_20180603_napos_kalaszos_T4.avi /home/horvathandras/vatic/vatic/videos/DJI_0026_30m_szeldontes_vadvalto_arpa_homokmegy_20180603_napos_kalaszos_T4 --no-resize
ffmpeg version 2.8.14-0ubuntu0.16.04.1 Copyright (c) 2000-2018 the FFmpeg developers
  built with gcc 5.4.0 (Ubuntu 5.4.0-6ubuntu1~16.04.9) 20160609
  configuration: --prefix=/usr --extra-version=0ubuntu0.16.04.1 --build-suffix=-ffmpeg --toolchain=hardened --libdir=/usr/lib/x86_64-linux-gnu --incdir=/usr/include/x86_64-linux-gnu --cc=cc --cxx=g++ --enable-gpl --enable-shared --disable-stripping --disable-decoder=libopenjpeg --disable-decoder=libschroedinger --enable-avresample --enable-avisynth --enable-gnutls --enable-ladspa --enable-libass --enable-libbluray --enable-libbs2b --enable-libcaca --enable-libcdio --enable-libflite --enable-libfontconfig --enable-libfreetype --enable-libfribidi --enable-libgme --enable-libgsm --enable-libmodplug --enable-libmp3lame --enable-libopenjpeg --enable-libopus --enable-libpulse --enable-librtmp --enable-libschroedinger --enable-libshine --enable-libsnappy --enable-libsoxr --enable-libspeex --enable-libssh --enable-libtheora --enable-libtwolame --enable-libvorbis --enable-libvpx --enable-libwavpack --enable-libwebp --enable-libx265 --enable-libxvid --enable-libzvbi --enable-openal --enable-opengl --enable-x11grab --enable-libdc1394 --enable-libiec61883 --enable-libzmq --enable-frei0r --enable-libx264 --enable-libopencv
  libavutil      54. 31.100 / 54. 31.100
  libavcodec     56. 60.100 / 56. 60.100
  libavformat    56. 40.101 / 56. 40.101
  libavdevice    56.  4.100 / 56.  4.100
  libavfilter     5. 40.101 /  5. 40.101
  libavresample   2.  1.  0 /  2.  1.  0
  libswscale      3.  1.101 /  3.  1.101
  libswresample   1.  2.101 /  1.  2.101
  libpostproc    53.  3.100 / 53.  3.100
Input #0, mov,mp4,m4a,3gp,3g2,mj2, from '/home/horvathandras/vatic/vatic/public/videouploads/DJI_0026_30m_szeldontes_vadvalto_arpa_homokmegy_20180603_napos_kalaszos_T4.avi':
  Metadata:
    major_brand     : qt  
    minor_version   : 537986816
    compatible_brands: qt  
    creation_time   : 2018-06-03 08:07:10
    location        : +46.515603+19.136794+30.300
    location-{    : +46.515603+19.136794+30.300
    comment         : DE=None, Mode=P, DSW=0001
  Duration: 00:00:37.80, start: 0.000000, bitrate: 100427 kb/s
    Stream #0:0(eng): Video: h264 (High) (avc1 / 0x31637661), yuv420p(tv, bt709), 4096x2160 [SAR 1:1 DAR 256:135], 100310 kb/s, 50 fps, 50 tbr, 50k tbn, 100 tbc (default)
    Metadata:
      creation_time   : 2018-06-03 08:07:10
      handler_name    : DJI.AVC
      encoder         : AVC encoder
    Stream #0:1(eng): Data: none (priv / 0x76697270), 109 kb/s
    Metadata:
      creation_time   : 2018-06-03 08:07:10
      handler_name    : DJI.Meta
Please use -b:a or -b:v, -b is ambiguous
[swscaler @ 0x7d5d40] deprecated pixel format used, make sure you did set range correctly
Output #0, image2, to '/tmp/pyvision-ffmpeg-870724401/%d.jpg':
  Metadata:
    major_brand     : qt  
    minor_version   : 537986816
    compatible_brands: qt  
    comment         : DE=None, Mode=P, DSW=0001
    location        : +46.515603+19.136794+30.300
    location-{    : +46.515603+19.136794+30.300
    encoder         : Lavf56.40.101
    Stream #0:0(eng): Video: mjpeg, yuvj420p(pc), 4096x2160 [SAR 1:1 DAR 256:135], q=2-31, 10000 kb/s, 50 fps, 50 tbn, 50 tbc (default)
    Metadata:
      creation_time   : 2018-06-03 08:07:10
      handler_name    : DJI.AVC
      encoder         : Lavc56.60.100 mjpeg
Stream mapping:
  Stream #0:0 -> #0:0 (h264 (native) -> mjpeg (native))
Press [q] to stop, [?] for help
frame=    1 fps=0.9 q=19.7 size=N/A time=00:00:00.02 bitrate=N/A    frame=    4 fps=2.3 q=24.8 size=N/A time=00:00:00.08 bitrate=N/A    frame=    7 fps=2.9 q=24.8 size=N/A time=00:00:00.14 bitrate=N/A    frame=   10 fps=3.3 q=24.8 size=N/A time=00:00:00.20 bitrate=N/A    frame=   14 fps=3.8 q=24.8 size=N/A time=00:00:00.28 bitrate=N/A    frame=   17 fps=4.0 q=24.8 size=N/A time=00:00:00.34 bitrate=N/A    frame=   20 fps=4.2 q=24.8 size=N/A time=00:00:00.40 bitrate=N/A    frame=   23 fps=4.4 q=24.8 size=N/A time=00:00:00.46 bitrate=N/A    frame=   27 fps=4.6 q=24.8 size=N/A time=00:00:00.54 bitrate=N/A    frame=   31 fps=4.7 q=24.8 size=N/A time=00:00:00.62 bitrate=N/A    frame=   34 fps=4.8 q=24.8 size=N/A time=00:00:00.68 bitrate=N/A    frame=   37 fps=4.8 q=24.8 size=N/A time=00:00:00.74 bitrate=N/A    frame=   40 fps=4.9 q=24.8 size=N/A time=00:00:00.80 bitrate=N/A    frame=   44 fps=5.0 q=24.8 size=N/A time=00:00:00.88 bitrate=N/A    frame=   48 fps=5.1 q=24.8 size=N/A time=00:00:00.96 bitrate=N/A    frame=   52 fps=5.2 q=24.8 size=N/A time=00:00:01.04 bitrate=N/A    frame=   56 fps=5.3 q=24.8 size=N/A time=00:00:01.12 bitrate=N/A    frame=   59 fps=5.3 q=24.8 size=N/A time=00:00:01.18 bitrate=N/A    frame=   62 fps=5.3 q=24.8 size=N/A time=00:00:01.24 bitrate=N/A    frame=   65 fps=5.3 q=24.8 size=N/A time=00:00:01.30 bitrate=N/A    frame=   68 fps=5.3 q=24.8 size=N/A time=00:00:01.36 bitrate=N/A    frame=   72 fps=5.3 q=24.8 size=N/A time=00:00:01.44 bitrate=N/A    frame=   76 fps=5.4 q=24.8 size=N/A time=00:00:01.52 bitrate=N/A    frame=   80 fps=5.4 q=24.8 size=N/A time=00:00:01.60 bitrate=N/A    frame=   83 fps=5.4 q=24.8 size=N/A time=00:00:01.66 bitrate=N/A    frame=   87 fps=5.5 q=24.8 size=N/A time=00:00:01.74 bitrate=N/A    frame=   91 fps=5.5 q=24.8 size=N/A time=00:00:01.82 bitrate=N/A    frame=   94 fps=5.5 q=24.8 size=N/A time=00:00:01.88 bitrate=N/A    frame=   97 fps=5.6 q=24.8 size=N/A time=00:00:01.94 bitrate=N/A    frame=  101 fps=5.6 q=24.8 size=N/A time=00:00:02.02 bitrate=N/A    frame=  105 fps=5.6 q=24.8 size=N/A time=00:00:02.10 bitrate=N/A    frame=  109 fps=5.7 q=24.8 size=N/A time=00:00:02.18 bitrate=N/A    frame=  112 fps=5.7 q=24.8 size=N/A time=00:00:02.24 bitrate=N/A    frame=  115 fps=5.6 q=24.8 size=N/A time=00:00:02.30 bitrate=N/A    frame=  119 fps=5.6 q=24.8 size=N/A time=00:00:02.38 bitrate=N/A    frame=  123 fps=5.7 q=24.8 size=N/A time=00:00:02.46 bitrate=N/A    frame=  126 fps=5.7 q=24.8 size=N/A time=00:00:02.52 bitrate=N/A    frame=  129 fps=5.7 q=24.8 size=N/A time=00:00:02.58 bitrate=N/A    frame=  133 fps=5.7 q=24.8 size=N/A time=00:00:02.66 bitrate=N/A    frame=  136 fps=5.7 q=24.8 size=N/A time=00:00:02.72 bitrate=N/A    frame=  139 fps=5.7 q=24.8 size=N/A time=00:00:02.78 bitrate=N/A    frame=  142 fps=5.7 q=24.8 size=N/A time=00:00:02.84 bitrate=N/A    frame=  145 fps=5.7 q=24.8 size=N/A time=00:00:02.90 bitrate=N/A    frame=  148 fps=5.7 q=24.8 size=N/A time=00:00:02.96 bitrate=N/A    frame=  152 fps=5.7 q=24.8 size=N/A time=00:00:03.04 bitrate=N/A    frame=  155 fps=5.7 q=24.8 size=N/A time=00:00:03.10 bitrate=N/A    frame=  159 fps=5.7 q=24.8 size=N/A time=00:00:03.18 bitrate=N/A    frame=  163 fps=5.7 q=24.8 size=N/A time=00:00:03.26 bitrate=N/A    frame=  167 fps=5.7 q=24.8 size=N/A time=00:00:03.34 bitrate=N/A    frame=  170 fps=5.7 q=24.8 size=N/A time=00:00:03.40 bitrate=N/A    frame=  173 fps=5.7 q=24.8 size=N/A time=00:00:03.46 bitrate=N/A    frame=  177 fps=5.7 q=24.8 size=N/A time=00:00:03.54 bitrate=N/A    frame=  179 fps=5.7 q=24.8 size=N/A time=00:00:03.58 bitrate=N/A    frame=  182 fps=5.7 q=24.8 size=N/A time=00:00:03.64 bitrate=N/A    frame=  185 fps=5.7 q=24.8 size=N/A time=00:00:03.70 bitrate=N/A    frame=  188 fps=5.7 q=24.8 size=N/A time=00:00:03.76 bitrate=N/A    frame=  191 fps=5.7 q=24.8 size=N/A time=00:00:03.82 bitrate=N/A    frame=  194 fps=5.7 q=24.8 size=N/A time=00:00:03.88 bitrate=N/A    frame=  197 fps=5.7 q=24.8 size=N/A time=00:00:03.94 bitrate=N/A    frame=  200 fps=5.7 q=24.8 size=N/A time=00:00:04.00 bitrate=N/A    frame=  203 fps=5.7 q=24.8 size=N/A time=00:00:04.06 bitrate=N/A    frame=  206 fps=5.7 q=24.8 size=N/A time=00:00:04.12 bitrate=N/A    frame=  209 fps=5.7 q=24.8 size=N/A time=00:00:04.18 bitrate=N/A    frame=  213 fps=5.7 q=24.8 size=N/A time=00:00:04.26 bitrate=N/A    frame=  216 fps=5.7 q=24.8 size=N/A time=00:00:04.32 bitrate=N/A    frame=  219 fps=5.7 q=24.8 size=N/A time=00:00:04.38 bitrate=N/A    frame=  223 fps=5.7 q=24.8 size=N/A time=00:00:04.46 bitrate=N/A    frame=  227 fps=5.7 q=24.8 size=N/A time=00:00:04.54 bitrate=N/A    frame=  231 fps=5.7 q=24.8 size=N/A time=00:00:04.62 bitrate=N/A    frame=  234 fps=5.7 q=24.8 size=N/A time=00:00:04.68 bitrate=N/A    frame=  238 fps=5.7 q=24.8 size=N/A time=00:00:04.76 bitrate=N/A    frame=  240 fps=5.7 q=24.8 size=N/A time=00:00:04.80 bitrate=N/A    frame=  243 fps=5.6 q=24.8 size=N/A time=00:00:04.86 bitrate=N/A    frame=  246 fps=5.6 q=24.8 size=N/A time=00:00:04.92 bitrate=N/A    frame=  250 fps=5.6 q=24.8 size=N/A time=00:00:05.00 bitrate=N/A    frame=  254 fps=5.6 q=24.8 size=N/A time=00:00:05.08 bitrate=N/A    frame=  256 fps=5.6 q=24.8 size=N/A time=00:00:05.12 bitrate=N/A    frame=  259 fps=5.6 q=24.8 size=N/A time=00:00:05.18 bitrate=N/A    frame=  262 fps=5.6 q=24.8 size=N/A time=00:00:05.24 bitrate=N/A    frame=  265 fps=5.6 q=24.8 size=N/A time=00:00:05.30 bitrate=N/A    frame=  268 fps=5.6 q=24.8 size=N/A time=00:00:05.36 bitrate=N/A    frame=  271 fps=5.6 q=24.8 size=N/A time=00:00:05.42 bitrate=N/A    frame=  275 fps=5.6 q=24.8 size=N/A time=00:00:05.50 bitrate=N/A    frame=  279 fps=5.6 q=24.8 size=N/A time=00:00:05.58 bitrate=N/A    frame=  282 fps=5.6 q=24.8 size=N/A time=00:00:05.64 bitrate=N/A    frame=  286 fps=5.6 q=24.8 size=N/A time=00:00:05.72 bitrate=N/A    frame=  290 fps=5.6 q=24.8 size=N/A time=00:00:05.80 bitrate=N/A    frame=  293 fps=5.6 q=24.8 size=N/A time=00:00:05.86 bitrate=N/A    frame=  297 fps=5.6 q=24.8 size=N/A time=00:00:05.94 bitrate=N/A    frame=  300 fps=5.6 q=24.8 size=N/A time=00:00:06.00 bitrate=N/A    frame=  303 fps=5.6 q=24.8 size=N/A time=00:00:06.06 bitrate=N/A    frame=  307 fps=5.6 q=24.8 size=N/A time=00:00:06.14 bitrate=N/A    frame=  311 fps=5.6 q=24.8 size=N/A time=00:00:06.22 bitrate=N/A    frame=  315 fps=5.6 q=24.8 size=N/A time=00:00:06.30 bitrate=N/A    frame=  319 fps=5.6 q=24.8 size=N/A time=00:00:06.38 bitrate=N/A    frame=  323 fps=5.6 q=24.8 size=N/A time=00:00:06.46 bitrate=N/A    frame=  327 fps=5.6 q=24.8 size=N/A time=00:00:06.54 bitrate=N/A    frame=  331 fps=5.6 q=24.8 size=N/A time=00:00:06.62 bitrate=N/A    frame=  335 fps=5.7 q=24.8 size=N/A time=00:00:06.70 bitrate=N/A    frame=  339 fps=5.7 q=24.8 size=N/A time=00:00:06.78 bitrate=N/A    frame=  343 fps=5.7 q=24.8 size=N/A time=00:00:06.86 bitrate=N/A    frame=  347 fps=5.7 q=24.8 size=N/A time=00:00:06.94 bitrate=N/A    frame=  350 fps=5.7 q=24.8 size=N/A time=00:00:07.00 bitrate=N/A    frame=  353 fps=5.7 q=24.8 size=N/A time=00:00:07.06 bitrate=N/A    frame=  356 fps=5.7 q=24.8 size=N/A time=00:00:07.12 bitrate=N/A    frame=  358 fps=5.7 q=24.8 size=N/A time=00:00:07.16 bitrate=N/A    frame=  361 fps=5.6 q=24.8 size=N/A time=00:00:07.22 bitrate=N/A    frame=  364 fps=5.6 q=24.8 size=N/A time=00:00:07.28 bitrate=N/A    frame=  367 fps=5.6 q=24.8 size=N/A time=00:00:07.34 bitrate=N/A    frame=  371 fps=5.7 q=24.8 size=N/A time=00:00:07.42 bitrate=N/A    frame=  375 fps=5.7 q=24.8 size=N/A time=00:00:07.50 bitrate=N/A    frame=  378 fps=5.7 q=24.8 size=N/A time=00:00:07.56 bitrate=N/A    frame=  381 fps=5.7 q=24.8 size=N/A time=00:00:07.62 bitrate=N/A    frame=  385 fps=5.7 q=24.8 size=N/A time=00:00:07.70 bitrate=N/A    frame=  388 fps=5.6 q=24.8 size=N/A time=00:00:07.76 bitrate=N/A    frame=  392 fps=5.7 q=24.8 size=N/A time=00:00:07.84 bitrate=N/A    frame=  396 fps=5.7 q=24.8 size=N/A time=00:00:07.92 bitrate=N/A    frame=  399 fps=5.7 q=24.8 size=N/A time=00:00:07.98 bitrate=N/A    frame=  402 fps=5.7 q=24.8 size=N/A time=00:00:08.04 bitrate=N/A    frame=  406 fps=5.7 q=24.8 size=N/A time=00:00:08.12 bitrate=N/A    frame=  409 fps=5.7 q=24.8 size=N/A time=00:00:08.18 bitrate=N/A    frame=  412 fps=5.7 q=24.8 size=N/A time=00:00:08.24 bitrate=N/A    frame=  416 fps=5.7 q=24.8 size=N/A time=00:00:08.32 bitrate=N/A    frame=  418 fps=5.6 q=24.8 size=N/A time=00:00:08.36 bitrate=N/A    frame=  421 fps=5.6 q=24.8 size=N/A time=00:00:08.42 bitrate=N/A    frame=  425 fps=5.6 q=24.8 size=N/A time=00:00:08.50 bitrate=N/A    frame=  428 fps=5.6 q=24.8 size=N/A time=00:00:08.56 bitrate=N/A    frame=  432 fps=5.6 q=24.8 size=N/A time=00:00:08.64 bitrate=N/A    frame=  435 fps=5.6 q=24.8 size=N/A time=00:00:08.70 bitrate=N/A    frame=  438 fps=5.6 q=24.8 size=N/A time=00:00:08.76 bitrate=N/A    frame=  441 fps=5.6 q=24.8 size=N/A time=00:00:08.82 bitrate=N/A    frame=  444 fps=5.6 q=24.8 size=N/A time=00:00:08.88 bitrate=N/A    frame=  447 fps=5.6 q=24.8 size=N/A time=00:00:08.94 bitrate=N/A    frame=  451 fps=5.6 q=24.8 size=N/A time=00:00:09.02 bitrate=N/A    frame=  454 fps=5.6 q=24.8 size=N/A time=00:00:09.08 bitrate=N/A    frame=  457 fps=5.6 q=24.8 size=N/A time=00:00:09.14 bitrate=N/A    frame=  460 fps=5.6 q=24.8 size=N/A time=00:00:09.20 bitrate=N/A    frame=  463 fps=5.6 q=24.8 size=N/A time=00:00:09.26 bitrate=N/A    frame=  466 fps=5.6 q=24.8 size=N/A time=00:00:09.32 bitrate=N/A    frame=  469 fps=5.6 q=24.8 size=N/A time=00:00:09.38 bitrate=N/A    frame=  472 fps=5.6 q=24.8 size=N/A time=00:00:09.44 bitrate=N/A    frame=  475 fps=5.6 q=24.8 size=N/A time=00:00:09.50 bitrate=N/A    frame=  478 fps=5.6 q=24.8 size=N/A time=00:00:09.56 bitrate=N/A    frame=  480 fps=5.6 q=24.8 size=N/A time=00:00:09.60 bitrate=N/A    frame=  483 fps=5.6 q=24.8 size=N/A time=00:00:09.66 bitrate=N/A    frame=  486 fps=5.6 q=24.8 size=N/A time=00:00:09.72 bitrate=N/A    frame=  489 fps=5.6 q=24.8 size=N/A time=00:00:09.78 bitrate=N/A    frame=  492 fps=5.6 q=24.8 size=N/A time=00:00:09.84 bitrate=N/A    frame=  495 fps=5.6 q=24.8 size=N/A time=00:00:09.90 bitrate=N/A    frame=  499 fps=5.6 q=24.8 size=N/A time=00:00:09.98 bitrate=N/A    frame=  503 fps=5.6 q=24.8 size=N/A time=00:00:10.06 bitrate=N/A    frame=  506 fps=5.6 q=24.8 size=N/A time=00:00:10.12 bitrate=N/A    frame=  510 fps=5.6 q=24.8 size=N/A time=00:00:10.20 bitrate=N/A    frame=  513 fps=5.6 q=24.8 size=N/A time=00:00:10.26 bitrate=N/A    frame=  516 fps=5.6 q=24.8 size=N/A time=00:00:10.32 bitrate=N/A    frame=  519 fps=5.6 q=24.8 size=N/A time=00:00:10.38 bitrate=N/A    frame=  522 fps=5.6 q=24.8 size=N/A time=00:00:10.44 bitrate=N/A    frame=  525 fps=5.5 q=24.8 size=N/A time=00:00:10.50 bitrate=N/A    frame=  528 fps=5.5 q=24.8 size=N/A time=00:00:10.56 bitrate=N/A    frame=  531 fps=5.5 q=24.8 size=N/A time=00:00:10.62 bitrate=N/A    frame=  534 fps=5.6 q=24.8 size=N/A time=00:00:10.68 bitrate=N/A    frame=  536 fps=5.5 q=24.8 size=N/A time=00:00:10.72 bitrate=N/A    frame=  539 fps=5.5 q=24.8 size=N/A time=00:00:10.78 bitrate=N/A    frame=  542 fps=5.5 q=24.8 size=N/A time=00:00:10.84 bitrate=N/A    frame=  545 fps=5.5 q=24.8 size=N/A time=00:00:10.90 bitrate=N/A    frame=  549 fps=5.5 q=24.8 size=N/A time=00:00:10.98 bitrate=N/A    frame=  553 fps=5.5 q=24.8 size=N/A time=00:00:11.06 bitrate=N/A    frame=  557 fps=5.6 q=24.8 size=N/A time=00:00:11.14 bitrate=N/A    frame=  560 fps=5.6 q=24.8 size=N/A time=00:00:11.20 bitrate=N/A    frame=  563 fps=5.6 q=24.8 size=N/A time=00:00:11.26 bitrate=N/A    frame=  566 fps=5.6 q=24.8 size=N/A time=00:00:11.32 bitrate=N/A    frame=  569 fps=5.5 q=24.8 size=N/A time=00:00:11.38 bitrate=N/A    frame=  572 fps=5.5 q=24.8 size=N/A time=00:00:11.44 bitrate=N/A    frame=  575 fps=5.5 q=24.8 size=N/A time=00:00:11.50 bitrate=N/A    frame=  579 fps=5.5 q=24.8 size=N/A time=00:00:11.58 bitrate=N/A    frame=  583 fps=5.6 q=24.8 size=N/A time=00:00:11.66 bitrate=N/A    frame=  587 fps=5.6 q=24.8 size=N/A time=00:00:11.74 bitrate=N/A    frame=  590 fps=5.6 q=24.8 size=N/A time=00:00:11.80 bitrate=N/A    frame=  593 fps=5.6 q=24.8 size=N/A time=00:00:11.86 bitrate=N/A    frame=  597 fps=5.6 q=24.8 size=N/A time=00:00:11.94 bitrate=N/A    frame=  600 fps=5.6 q=24.8 size=N/A time=00:00:12.00 bitrate=N/A    frame=  603 fps=5.6 q=24.8 size=N/A time=00:00:12.06 bitrate=N/A    frame=  607 fps=5.6 q=24.8 size=N/A time=00:00:12.14 bitrate=N/A    frame=  611 fps=5.6 q=24.8 size=N/A time=00:00:12.22 bitrate=N/A    frame=  615 fps=5.6 q=24.8 size=N/A time=00:00:12.30 bitrate=N/A    frame=  617 fps=5.6 q=24.8 size=N/A time=00:00:12.34 bitrate=N/A    frame=  620 fps=5.6 q=24.8 size=N/A time=00:00:12.40 bitrate=N/A    frame=  623 fps=5.6 q=24.8 size=N/A time=00:00:12.46 bitrate=N/A    frame=  626 fps=5.6 q=24.8 size=N/A time=00:00:12.52 bitrate=N/A    frame=  629 fps=5.6 q=24.8 size=N/A time=00:00:12.58 bitrate=N/A    frame=  633 fps=5.6 q=24.8 size=N/A time=00:00:12.66 bitrate=N/A    frame=  637 fps=5.6 q=24.8 size=N/A time=00:00:12.74 bitrate=N/A    frame=  640 fps=5.6 q=24.8 size=N/A time=00:00:12.80 bitrate=N/A    frame=  643 fps=5.6 q=24.8 size=N/A time=00:00:12.86 bitrate=N/A    frame=  647 fps=5.6 q=24.8 size=N/A time=00:00:12.94 bitrate=N/A    frame=  650 fps=5.6 q=24.8 size=N/A time=00:00:13.00 bitrate=N/A    frame=  653 fps=5.6 q=24.8 size=N/A time=00:00:13.06 bitrate=N/A    frame=  656 fps=5.6 q=24.8 size=N/A time=00:00:13.12 bitrate=N/A    frame=  659 fps=5.6 q=24.8 size=N/A time=00:00:13.18 bitrate=N/A    frame=  662 fps=5.6 q=24.8 size=N/A time=00:00:13.24 bitrate=N/A    frame=  665 fps=5.6 q=24.8 size=N/A time=00:00:13.30 bitrate=N/A    frame=  668 fps=5.6 q=24.8 size=N/A time=00:00:13.36 bitrate=N/A    frame=  671 fps=5.6 q=24.8 size=N/A time=00:00:13.42 bitrate=N/A    frame=  674 fps=5.6 q=24.8 size=N/A time=00:00:13.48 bitrate=N/A    frame=  677 fps=5.6 q=24.8 size=N/A time=00:00:13.54 bitrate=N/A    frame=  680 fps=5.6 q=24.8 size=N/A time=00:00:13.60 bitrate=N/A    frame=  684 fps=5.6 q=24.8 size=N/A time=00:00:13.68 bitrate=N/A    frame=  687 fps=5.6 q=24.8 size=N/A time=00:00:13.74 bitrate=N/A    frame=  690 fps=5.6 q=24.8 size=N/A time=00:00:13.80 bitrate=N/A    frame=  693 fps=5.6 q=24.8 size=N/A time=00:00:13.86 bitrate=N/A    frame=  696 fps=5.6 q=24.8 size=N/A time=00:00:13.92 bitrate=N/A    frame=  699 fps=5.6 q=24.8 size=N/A time=00:00:13.98 bitrate=N/A    frame=  703 fps=5.6 q=24.8 size=N/A time=00:00:14.06 bitrate=N/A    frame=  707 fps=5.6 q=24.8 size=N/A time=00:00:14.14 bitrate=N/A    frame=  711 fps=5.6 q=24.8 size=N/A time=00:00:14.22 bitrate=N/A    frame=  714 fps=5.6 q=24.8 size=N/A time=00:00:14.28 bitrate=N/A    frame=  717 fps=5.6 q=24.8 size=N/A time=00:00:14.34 bitrate=N/A    frame=  719 fps=5.6 q=24.8 size=N/A time=00:00:14.38 bitrate=N/A    frame=  723 fps=5.6 q=24.8 size=N/A time=00:00:14.46 bitrate=N/A    frame=  726 fps=5.6 q=24.8 size=N/A time=00:00:14.52 bitrate=N/A    frame=  730 fps=5.6 q=24.8 size=N/A time=00:00:14.60 bitrate=N/A    frame=  734 fps=5.6 q=24.8 size=N/A time=00:00:14.68 bitrate=N/A    frame=  738 fps=5.6 q=24.8 size=N/A time=00:00:14.76 bitrate=N/A    frame=  742 fps=5.6 q=24.8 size=N/A time=00:00:14.84 bitrate=N/A    frame=  746 fps=5.6 q=24.8 size=N/A time=00:00:14.92 bitrate=N/A    frame=  750 fps=5.6 q=24.8 size=N/A time=00:00:15.00 bitrate=N/A    frame=  753 fps=5.6 q=24.8 size=N/A time=00:00:15.06 bitrate=N/A    frame=  756 fps=5.6 q=24.8 size=N/A time=00:00:15.12 bitrate=N/A    frame=  759 fps=5.6 q=24.8 size=N/A time=00:00:15.18 bitrate=N/A    frame=  762 fps=5.6 q=24.8 size=N/A time=00:00:15.24 bitrate=N/A    frame=  766 fps=5.6 q=24.8 size=N/A time=00:00:15.32 bitrate=N/A    frame=  769 fps=5.6 q=24.8 size=N/A time=00:00:15.38 bitrate=N/A    frame=  772 fps=5.6 q=24.8 size=N/A time=00:00:15.44 bitrate=N/A    frame=  775 fps=5.6 q=24.8 size=N/A time=00:00:15.50 bitrate=N/A    frame=  778 fps=5.6 q=24.8 size=N/A time=00:00:15.56 bitrate=N/A    frame=  781 fps=5.6 q=24.8 size=N/A time=00:00:15.62 bitrate=N/A    frame=  785 fps=5.6 q=24.8 size=N/A time=00:00:15.70 bitrate=N/A    frame=  788 fps=5.6 q=24.8 size=N/A time=00:00:15.76 bitrate=N/A    frame=  791 fps=5.6 q=24.8 size=N/A time=00:00:15.82 bitrate=N/A    frame=  794 fps=5.6 q=24.8 size=N/A time=00:00:15.88 bitrate=N/A    frame=  797 fps=5.6 q=24.8 size=N/A time=00:00:15.94 bitrate=N/A    frame=  800 fps=5.6 q=24.8 size=N/A time=00:00:16.00 bitrate=N/A    frame=  804 fps=5.6 q=24.8 size=N/A time=00:00:16.08 bitrate=N/A    frame=  808 fps=5.6 q=24.8 size=N/A time=00:00:16.16 bitrate=N/A    frame=  811 fps=5.6 q=24.8 size=N/A time=00:00:16.22 bitrate=N/A    frame=  814 fps=5.6 q=24.8 size=N/A time=00:00:16.28 bitrate=N/A    frame=  818 fps=5.6 q=24.8 size=N/A time=00:00:16.36 bitrate=N/A    frame=  822 fps=5.6 q=24.8 size=N/A time=00:00:16.44 bitrate=N/A    frame=  826 fps=5.6 q=24.8 size=N/A time=00:00:16.52 bitrate=N/A    frame=  829 fps=5.6 q=24.8 size=N/A time=00:00:16.58 bitrate=N/A    frame=  832 fps=5.6 q=24.8 size=N/A time=00:00:16.64 bitrate=N/A    frame=  836 fps=5.6 q=24.8 size=N/A time=00:00:16.72 bitrate=N/A    frame=  840 fps=5.6 q=24.8 size=N/A time=00:00:16.80 bitrate=N/A    frame=  844 fps=5.6 q=24.8 size=N/A time=00:00:16.88 bitrate=N/A    frame=  848 fps=5.6 q=24.8 size=N/A time=00:00:16.96 bitrate=N/A    frame=  851 fps=5.6 q=24.8 size=N/A time=00:00:17.02 bitrate=N/A    frame=  855 fps=5.6 q=24.8 size=N/A time=00:00:17.10 bitrate=N/A    frame=  858 fps=5.6 q=24.8 size=N/A time=00:00:17.16 bitrate=N/A    frame=  862 fps=5.6 q=24.8 size=N/A time=00:00:17.24 bitrate=N/A    frame=  865 fps=5.6 q=24.8 size=N/A time=00:00:17.30 bitrate=N/A    frame=  869 fps=5.6 q=24.8 size=N/A time=00:00:17.38 bitrate=N/A    frame=  872 fps=5.6 q=24.8 size=N/A time=00:00:17.44 bitrate=N/A    frame=  876 fps=5.6 q=24.8 size=N/A time=00:00:17.52 bitrate=N/A    frame=  879 fps=5.6 q=24.8 size=N/A time=00:00:17.58 bitrate=N/A    frame=  883 fps=5.6 q=24.8 size=N/A time=00:00:17.66 bitrate=N/A    frame=  886 fps=5.6 q=24.8 size=N/A time=00:00:17.72 bitrate=N/A    frame=  890 fps=5.6 q=24.8 size=N/A time=00:00:17.80 bitrate=N/A    frame=  893 fps=5.6 q=24.8 size=N/A time=00:00:17.86 bitrate=N/A    frame=  897 fps=5.6 q=24.8 size=N/A time=00:00:17.94 bitrate=N/A    frame=  900 fps=5.6 q=24.8 size=N/A time=00:00:18.00 bitrate=N/A    frame=  903 fps=5.6 q=24.8 size=N/A time=00:00:18.06 bitrate=N/A    frame=  906 fps=5.6 q=24.8 size=N/A time=00:00:18.12 bitrate=N/A    frame=  909 fps=5.6 q=24.8 size=N/A time=00:00:18.18 bitrate=N/A    frame=  913 fps=5.6 q=24.8 size=N/A time=00:00:18.26 bitrate=N/A    frame=  917 fps=5.6 q=24.8 size=N/A time=00:00:18.34 bitrate=N/A    frame=  920 fps=5.6 q=24.8 size=N/A time=00:00:18.40 bitrate=N/A    frame=  923 fps=5.6 q=24.8 size=N/A time=00:00:18.46 bitrate=N/A    frame=  927 fps=5.6 q=24.8 size=N/A time=00:00:18.54 bitrate=N/A    frame=  931 fps=5.6 q=24.8 size=N/A time=00:00:18.62 bitrate=N/A    frame=  934 fps=5.6 q=24.8 size=N/A time=00:00:18.68 bitrate=N/A    frame=  938 fps=5.6 q=24.8 size=N/A time=00:00:18.76 bitrate=N/A    frame=  941 fps=5.6 q=24.8 size=N/A time=00:00:18.82 bitrate=N/A    frame=  944 fps=5.6 q=24.8 size=N/A time=00:00:18.88 bitrate=N/A    frame=  948 fps=5.6 q=24.8 size=N/A time=00:00:18.96 bitrate=N/A    frame=  951 fps=5.6 q=24.8 size=N/A time=00:00:19.02 bitrate=N/A    frame=  954 fps=5.6 q=24.8 size=N/A time=00:00:19.08 bitrate=N/A    frame=  957 fps=5.6 q=24.8 size=N/A time=00:00:19.14 bitrate=N/A    frame=  959 fps=5.6 q=24.8 size=N/A time=00:00:19.18 bitrate=N/A    frame=  962 fps=5.6 q=24.8 size=N/A time=00:00:19.24 bitrate=N/A    frame=  965 fps=5.6 q=24.8 size=N/A time=00:00:19.30 bitrate=N/A    frame=  968 fps=5.6 q=24.8 size=N/A time=00:00:19.36 bitrate=N/A    frame=  972 fps=5.6 q=24.8 size=N/A time=00:00:19.44 bitrate=N/A    frame=  976 fps=5.6 q=24.8 size=N/A time=00:00:19.52 bitrate=N/A    frame=  979 fps=5.6 q=24.8 size=N/A time=00:00:19.58 bitrate=N/A    frame=  982 fps=5.6 q=24.8 size=N/A time=00:00:19.64 bitrate=N/A    frame=  986 fps=5.6 q=24.8 size=N/A time=00:00:19.72 bitrate=N/A    frame=  989 fps=5.6 q=24.8 size=N/A time=00:00:19.78 bitrate=N/A    frame=  993 fps=5.6 q=24.8 size=N/A time=00:00:19.86 bitrate=N/A    frame=  997 fps=5.6 q=24.8 size=N/A time=00:00:19.94 bitrate=N/A    frame= 1001 fps=5.6 q=24.8 size=N/A time=00:00:20.02 bitrate=N/A    frame= 1004 fps=5.6 q=24.8 size=N/A time=00:00:20.08 bitrate=N/A    frame= 1008 fps=5.6 q=24.8 size=N/A time=00:00:20.16 bitrate=N/A    frame= 1012 fps=5.6 q=24.8 size=N/A time=00:00:20.24 bitrate=N/A    frame= 1015 fps=5.6 q=24.8 size=N/A time=00:00:20.30 bitrate=N/A    frame= 1018 fps=5.6 q=24.8 size=N/A time=00:00:20.36 bitrate=N/A    frame= 1021 fps=5.6 q=24.8 size=N/A time=00:00:20.42 bitrate=N/A    frame= 1025 fps=5.6 q=24.8 size=N/A time=00:00:20.50 bitrate=N/A    frame= 1029 fps=5.6 q=24.8 size=N/A time=00:00:20.58 bitrate=N/A    frame= 1032 fps=5.6 q=24.8 size=N/A time=00:00:20.64 bitrate=N/A    frame= 1035 fps=5.6 q=24.8 size=N/A time=00:00:20.70 bitrate=N/A    frame= 1039 fps=5.6 q=24.8 size=N/A time=00:00:20.78 bitrate=N/A    frame= 1042 fps=5.6 q=24.8 size=N/A time=00:00:20.84 bitrate=N/A    frame= 1046 fps=5.6 q=24.8 size=N/A time=00:00:20.92 bitrate=N/A    frame= 1050 fps=5.6 q=24.8 size=N/A time=00:00:21.00 bitrate=N/A    frame= 1053 fps=5.6 q=24.8 size=N/A time=00:00:21.06 bitrate=N/A    frame= 1056 fps=5.6 q=24.8 size=N/A time=00:00:21.12 bitrate=N/A    frame= 1060 fps=5.6 q=24.8 size=N/A time=00:00:21.20 bitrate=N/A    frame= 1063 fps=5.6 q=24.8 size=N/A time=00:00:21.26 bitrate=N/A    frame= 1066 fps=5.6 q=24.8 size=N/A time=00:00:21.32 bitrate=N/A    frame= 1069 fps=5.6 q=24.8 size=N/A time=00:00:21.38 bitrate=N/A    frame= 1072 fps=5.6 q=24.8 size=N/A time=00:00:21.44 bitrate=N/A    frame= 1075 fps=5.6 q=24.8 size=N/A time=00:00:21.50 bitrate=N/A    frame= 1078 fps=5.6 q=24.8 size=N/A time=00:00:21.56 bitrate=N/A    frame= 1081 fps=5.6 q=24.8 size=N/A time=00:00:21.62 bitrate=N/A    frame= 1084 fps=5.6 q=24.8 size=N/A time=00:00:21.68 bitrate=N/A    frame= 1087 fps=5.6 q=24.8 size=N/A time=00:00:21.74 bitrate=N/A    frame= 1090 fps=5.6 q=24.8 size=N/A time=00:00:21.80 bitrate=N/A    frame= 1093 fps=5.6 q=24.8 size=N/A time=00:00:21.86 bitrate=N/A    frame= 1096 fps=5.6 q=24.8 size=N/A time=00:00:21.92 bitrate=N/A    frame= 1099 fps=5.6 q=24.8 size=N/A time=00:00:21.98 bitrate=N/A    frame= 1102 fps=5.6 q=24.8 size=N/A time=00:00:22.04 bitrate=N/A    frame= 1106 fps=5.6 q=24.8 size=N/A time=00:00:22.12 bitrate=N/A    frame= 1110 fps=5.6 q=24.8 size=N/A time=00:00:22.20 bitrate=N/A    frame= 1112 fps=5.6 q=24.8 size=N/A time=00:00:22.24 bitrate=N/A    frame= 1115 fps=5.6 q=24.8 size=N/A time=00:00:22.30 bitrate=N/A    frame= 1118 fps=5.6 q=24.8 size=N/A time=00:00:22.36 bitrate=N/A    frame= 1121 fps=5.6 q=24.8 size=N/A time=00:00:22.42 bitrate=N/A    frame= 1124 fps=5.6 q=24.8 size=N/A time=00:00:22.48 bitrate=N/A    frame= 1127 fps=5.6 q=24.8 size=N/A time=00:00:22.54 bitrate=N/A    frame= 1130 fps=5.6 q=24.8 size=N/A time=00:00:22.60 bitrate=N/A    frame= 1133 fps=5.6 q=24.8 size=N/A time=00:00:22.66 bitrate=N/A    frame= 1136 fps=5.6 q=24.8 size=N/A time=00:00:22.72 bitrate=N/A    frame= 1139 fps=5.6 q=24.8 size=N/A time=00:00:22.78 bitrate=N/A    frame= 1142 fps=5.6 q=24.8 size=N/A time=00:00:22.84 bitrate=N/A    frame= 1146 fps=5.6 q=24.8 size=N/A time=00:00:22.92 bitrate=N/A    frame= 1150 fps=5.6 q=24.8 size=N/A time=00:00:23.00 bitrate=N/A    frame= 1154 fps=5.6 q=24.8 size=N/A time=00:00:23.08 bitrate=N/A    frame= 1158 fps=5.6 q=24.8 size=N/A time=00:00:23.16 bitrate=N/A    frame= 1161 fps=5.6 q=24.8 size=N/A time=00:00:23.22 bitrate=N/A    frame= 1164 fps=5.6 q=24.8 size=N/A time=00:00:23.28 bitrate=N/A    frame= 1168 fps=5.6 q=24.8 size=N/A time=00:00:23.36 bitrate=N/A    frame= 1171 fps=5.6 q=24.8 size=N/A time=00:00:23.42 bitrate=N/A    frame= 1175 fps=5.6 q=24.8 size=N/A time=00:00:23.50 bitrate=N/A    frame= 1178 fps=5.6 q=24.8 size=N/A time=00:00:23.56 bitrate=N/A    frame= 1181 fps=5.6 q=24.8 size=N/A time=00:00:23.62 bitrate=N/A    frame= 1184 fps=5.6 q=24.8 size=N/A time=00:00:23.68 bitrate=N/A    frame= 1187 fps=5.6 q=24.8 size=N/A time=00:00:23.74 bitrate=N/A    frame= 1191 fps=5.6 q=24.8 size=N/A time=00:00:23.82 bitrate=N/A    frame= 1194 fps=5.6 q=24.8 size=N/A time=00:00:23.88 bitrate=N/A    frame= 1198 fps=5.6 q=24.8 size=N/A time=00:00:23.96 bitrate=N/A    frame= 1201 fps=5.6 q=24.8 size=N/A time=00:00:24.02 bitrate=N/A    frame= 1205 fps=5.6 q=24.8 size=N/A time=00:00:24.10 bitrate=N/A    frame= 1208 fps=5.6 q=24.8 size=N/A time=00:00:24.16 bitrate=N/A    frame= 1211 fps=5.6 q=24.8 size=N/A time=00:00:24.22 bitrate=N/A    frame= 1214 fps=5.6 q=24.8 size=N/A time=00:00:24.28 bitrate=N/A    frame= 1218 fps=5.6 q=24.8 size=N/A time=00:00:24.36 bitrate=N/A    frame= 1221 fps=5.6 q=24.8 size=N/A time=00:00:24.42 bitrate=N/A    frame= 1223 fps=5.6 q=24.8 size=N/A time=00:00:24.46 bitrate=N/A    frame= 1227 fps=5.6 q=24.8 size=N/A time=00:00:24.54 bitrate=N/A    frame= 1230 fps=5.6 q=24.8 size=N/A time=00:00:24.60 bitrate=N/A    frame= 1234 fps=5.6 q=24.8 size=N/A time=00:00:24.68 bitrate=N/A    frame= 1237 fps=5.6 q=24.8 size=N/A time=00:00:24.74 bitrate=N/A    frame= 1240 fps=5.6 q=24.8 size=N/A time=00:00:24.80 bitrate=N/A    frame= 1244 fps=5.6 q=24.8 size=N/A time=00:00:24.88 bitrate=N/A    frame= 1247 fps=5.6 q=24.8 size=N/A time=00:00:24.94 bitrate=N/A    frame= 1251 fps=5.6 q=24.8 size=N/A time=00:00:25.02 bitrate=N/A    frame= 1254 fps=5.6 q=24.8 size=N/A time=00:00:25.08 bitrate=N/A    frame= 1258 fps=5.6 q=24.8 size=N/A time=00:00:25.16 bitrate=N/A    frame= 1262 fps=5.6 q=24.8 size=N/A time=00:00:25.24 bitrate=N/A    frame= 1266 fps=5.6 q=24.8 size=N/A time=00:00:25.32 bitrate=N/A    frame= 1269 fps=5.6 q=24.8 size=N/A time=00:00:25.38 bitrate=N/A    frame= 1273 fps=5.6 q=24.8 size=N/A time=00:00:25.46 bitrate=N/A    frame= 1276 fps=5.6 q=24.8 size=N/A time=00:00:25.52 bitrate=N/A    frame= 1279 fps=5.6 q=24.8 size=N/A time=00:00:25.58 bitrate=N/A    frame= 1283 fps=5.6 q=24.8 size=N/A time=00:00:25.66 bitrate=N/A    frame= 1286 fps=5.6 q=24.8 size=N/A time=00:00:25.72 bitrate=N/A    frame= 1289 fps=5.6 q=24.8 size=N/A time=00:00:25.78 bitrate=N/A    frame= 1292 fps=5.6 q=24.8 size=N/A time=00:00:25.84 bitrate=N/A    frame= 1296 fps=5.6 q=24.8 size=N/A time=00:00:25.92 bitrate=N/A    frame= 1299 fps=5.6 q=24.8 size=N/A time=00:00:25.98 bitrate=N/A    frame= 1302 fps=5.6 q=24.8 size=N/A time=00:00:26.04 bitrate=N/A    frame= 1305 fps=5.6 q=24.8 size=N/A time=00:00:26.10 bitrate=N/A    frame= 1309 fps=5.6 q=24.8 size=N/A time=00:00:26.18 bitrate=N/A    frame= 1313 fps=5.6 q=24.8 size=N/A time=00:00:26.26 bitrate=N/A    frame= 1316 fps=5.6 q=24.8 size=N/A time=00:00:26.32 bitrate=N/A    frame= 1319 fps=5.6 q=24.8 size=N/A time=00:00:26.38 bitrate=N/A    frame= 1323 fps=5.6 q=24.8 size=N/A time=00:00:26.46 bitrate=N/A    frame= 1327 fps=5.6 q=24.8 size=N/A time=00:00:26.54 bitrate=N/A    frame= 1330 fps=5.6 q=24.8 size=N/A time=00:00:26.60 bitrate=N/A    frame= 1333 fps=5.6 q=24.8 size=N/A time=00:00:26.66 bitrate=N/A    frame= 1336 fps=5.6 q=24.8 size=N/A time=00:00:26.72 bitrate=N/A    frame= 1340 fps=5.6 q=24.8 size=N/A time=00:00:26.80 bitrate=N/A    frame= 1343 fps=5.6 q=24.8 size=N/A time=00:00:26.86 bitrate=N/A    frame= 1347 fps=5.6 q=24.8 size=N/A time=00:00:26.94 bitrate=N/A    frame= 1350 fps=5.6 q=24.8 size=N/A time=00:00:27.00 bitrate=N/A    frame= 1352 fps=5.6 q=24.8 size=N/A time=00:00:27.04 bitrate=N/A    frame= 1356 fps=5.6 q=24.8 size=N/A time=00:00:27.12 bitrate=N/A    frame= 1359 fps=5.6 q=24.8 size=N/A time=00:00:27.18 bitrate=N/A    frame= 1362 fps=5.6 q=24.8 size=N/A time=00:00:27.24 bitrate=N/A    frame= 1366 fps=5.6 q=24.8 size=N/A time=00:00:27.32 bitrate=N/A    frame= 1369 fps=5.6 q=24.8 size=N/A time=00:00:27.38 bitrate=N/A    frame= 1372 fps=5.6 q=24.8 size=N/A time=00:00:27.44 bitrate=N/A    frame= 1375 fps=5.6 q=24.8 size=N/A time=00:00:27.50 bitrate=N/A    frame= 1378 fps=5.6 q=24.8 size=N/A time=00:00:27.56 bitrate=N/A    frame= 1382 fps=5.6 q=24.8 size=N/A time=00:00:27.64 bitrate=N/A    frame= 1385 fps=5.6 q=24.8 size=N/A time=00:00:27.70 bitrate=N/A    frame= 1388 fps=5.6 q=24.8 size=N/A time=00:00:27.76 bitrate=N/A    frame= 1391 fps=5.6 q=24.8 size=N/A time=00:00:27.82 bitrate=N/A    frame= 1394 fps=5.6 q=24.8 size=N/A time=00:00:27.88 bitrate=N/A    frame= 1397 fps=5.6 q=24.8 size=N/A time=00:00:27.94 bitrate=N/A    frame= 1401 fps=5.6 q=24.8 size=N/A time=00:00:28.02 bitrate=N/A    frame= 1405 fps=5.6 q=24.8 size=N/A time=00:00:28.10 bitrate=N/A    frame= 1408 fps=5.6 q=24.8 size=N/A time=00:00:28.16 bitrate=N/A    frame= 1411 fps=5.6 q=24.8 size=N/A time=00:00:28.22 bitrate=N/A    frame= 1415 fps=5.6 q=24.8 size=N/A time=00:00:28.30 bitrate=N/A    frame= 1419 fps=5.6 q=24.8 size=N/A time=00:00:28.38 bitrate=N/A    frame= 1423 fps=5.6 q=24.8 size=N/A time=00:00:28.46 bitrate=N/A    frame= 1427 fps=5.6 q=24.8 size=N/A time=00:00:28.54 bitrate=N/A    frame= 1431 fps=5.6 q=24.8 size=N/A time=00:00:28.62 bitrate=N/A    frame= 1434 fps=5.6 q=24.8 size=N/A time=00:00:28.68 bitrate=N/A    frame= 1437 fps=5.6 q=24.8 size=N/A time=00:00:28.74 bitrate=N/A    frame= 1440 fps=5.6 q=24.8 size=N/A time=00:00:28.80 bitrate=N/A    frame= 1443 fps=5.6 q=24.8 size=N/A time=00:00:28.86 bitrate=N/A    frame= 1446 fps=5.6 q=24.8 size=N/A time=00:00:28.92 bitrate=N/A    frame= 1448 fps=5.6 q=24.8 size=N/A time=00:00:28.96 bitrate=N/A    frame= 1451 fps=5.6 q=24.8 size=N/A time=00:00:29.02 bitrate=N/A    frame= 1455 fps=5.6 q=24.8 size=N/A time=00:00:29.10 bitrate=N/A    frame= 1459 fps=5.6 q=24.8 size=N/A time=00:00:29.18 bitrate=N/A    frame= 1463 fps=5.6 q=24.8 size=N/A time=00:00:29.26 bitrate=N/A    frame= 1467 fps=5.6 q=24.8 size=N/A time=00:00:29.34 bitrate=N/A    frame= 1471 fps=5.6 q=24.8 size=N/A time=00:00:29.42 bitrate=N/A    frame= 1475 fps=5.6 q=24.8 size=N/A time=00:00:29.50 bitrate=N/A    frame= 1479 fps=5.6 q=24.8 size=N/A time=00:00:29.58 bitrate=N/A    frame= 1482 fps=5.6 q=24.8 size=N/A time=00:00:29.64 bitrate=N/A    frame= 1485 fps=5.6 q=24.8 size=N/A time=00:00:29.70 bitrate=N/A    frame= 1489 fps=5.6 q=24.8 size=N/A time=00:00:29.78 bitrate=N/A    frame= 1492 fps=5.6 q=24.8 size=N/A time=00:00:29.84 bitrate=N/A    frame= 1495 fps=5.6 q=24.8 size=N/A time=00:00:29.90 bitrate=N/A    frame= 1498 fps=5.6 q=24.8 size=N/A time=00:00:29.96 bitrate=N/A    frame= 1501 fps=5.6 q=24.8 size=N/A time=00:00:30.02 bitrate=N/A    frame= 1505 fps=5.6 q=24.8 size=N/A time=00:00:30.10 bitrate=N/A    frame= 1508 fps=5.6 q=24.8 size=N/A time=00:00:30.16 bitrate=N/A    frame= 1512 fps=5.6 q=24.8 size=N/A time=00:00:30.24 bitrate=N/A    frame= 1516 fps=5.6 q=24.8 size=N/A time=00:00:30.32 bitrate=N/A    frame= 1520 fps=5.6 q=24.8 size=N/A time=00:00:30.40 bitrate=N/A    frame= 1523 fps=5.6 q=24.8 size=N/A time=00:00:30.46 bitrate=N/A    frame= 1527 fps=5.6 q=24.8 size=N/A time=00:00:30.54 bitrate=N/A    frame= 1530 fps=5.6 q=24.8 size=N/A time=00:00:30.60 bitrate=N/A    frame= 1533 fps=5.6 q=24.8 size=N/A time=00:00:30.66 bitrate=N/A    frame= 1536 fps=5.6 q=24.8 size=N/A time=00:00:30.72 bitrate=N/A    frame= 1540 fps=5.6 q=24.8 size=N/A time=00:00:30.80 bitrate=N/A    frame= 1543 fps=5.6 q=24.8 size=N/A time=00:00:30.86 bitrate=N/A    frame= 1546 fps=5.6 q=24.8 size=N/A time=00:00:30.92 bitrate=N/A    frame= 1550 fps=5.6 q=24.8 size=N/A time=00:00:31.00 bitrate=N/A    frame= 1553 fps=5.6 q=24.8 size=N/A time=00:00:31.06 bitrate=N/A    frame= 1555 fps=5.6 q=24.8 size=N/A time=00:00:31.10 bitrate=N/A    frame= 1559 fps=5.6 q=24.8 size=N/A time=00:00:31.18 bitrate=N/A    frame= 1562 fps=5.6 q=24.8 size=N/A time=00:00:31.24 bitrate=N/A    frame= 1565 fps=5.6 q=24.8 size=N/A time=00:00:31.30 bitrate=N/A    frame= 1569 fps=5.6 q=24.8 size=N/A time=00:00:31.38 bitrate=N/A    frame= 1572 fps=5.6 q=24.8 size=N/A time=00:00:31.44 bitrate=N/A    frame= 1576 fps=5.6 q=24.8 size=N/A time=00:00:31.52 bitrate=N/A    frame= 1580 fps=5.6 q=24.8 size=N/A time=00:00:31.60 bitrate=N/A    frame= 1584 fps=5.6 q=24.8 size=N/A time=00:00:31.68 bitrate=N/A    frame= 1587 fps=5.6 q=24.8 size=N/A time=00:00:31.74 bitrate=N/A    frame= 1591 fps=5.6 q=24.8 size=N/A time=00:00:31.82 bitrate=N/A    frame= 1594 fps=5.6 q=24.8 size=N/A time=00:00:31.88 bitrate=N/A    frame= 1598 fps=5.6 q=24.8 size=N/A time=00:00:31.96 bitrate=N/A    frame= 1602 fps=5.6 q=24.8 size=N/A time=00:00:32.04 bitrate=N/A    frame= 1606 fps=5.6 q=24.8 size=N/A time=00:00:32.12 bitrate=N/A    frame= 1610 fps=5.6 q=24.8 size=N/A time=00:00:32.20 bitrate=N/A    frame= 1614 fps=5.6 q=24.8 size=N/A time=00:00:32.28 bitrate=N/A    frame= 1618 fps=5.6 q=24.8 size=N/A time=00:00:32.36 bitrate=N/A    frame= 1622 fps=5.6 q=24.8 size=N/A time=00:00:32.44 bitrate=N/A    frame= 1626 fps=5.6 q=24.8 size=N/A time=00:00:32.52 bitrate=N/A    frame= 1630 fps=5.6 q=24.8 size=N/A time=00:00:32.60 bitrate=N/A    frame= 1634 fps=5.7 q=24.8 size=N/A time=00:00:32.68 bitrate=N/A    frame= 1638 fps=5.7 q=24.8 size=N/A time=00:00:32.76 bitrate=N/A    frame= 1642 fps=5.7 q=24.8 size=N/A time=00:00:32.84 bitrate=N/A    frame= 1646 fps=5.7 q=24.8 size=N/A time=00:00:32.92 bitrate=N/A    frame= 1650 fps=5.7 q=24.8 size=N/A time=00:00:33.00 bitrate=N/A    frame= 1654 fps=5.7 q=24.8 size=N/A time=00:00:33.08 bitrate=N/A    frame= 1658 fps=5.7 q=24.8 size=N/A time=00:00:33.16 bitrate=N/A    frame= 1662 fps=5.7 q=24.8 size=N/A time=00:00:33.24 bitrate=N/A    frame= 1666 fps=5.7 q=24.8 size=N/A time=00:00:33.32 bitrate=N/A    frame= 1670 fps=5.7 q=24.8 size=N/A time=00:00:33.40 bitrate=N/A    frame= 1674 fps=5.7 q=24.8 size=N/A time=00:00:33.48 bitrate=N/A    frame= 1678 fps=5.7 q=24.8 size=N/A time=00:00:33.56 bitrate=N/A    frame= 1682 fps=5.7 q=24.8 size=N/A time=00:00:33.64 bitrate=N/A    frame= 1687 fps=5.7 q=24.8 size=N/A time=00:00:33.74 bitrate=N/A    frame= 1691 fps=5.7 q=24.8 size=N/A time=00:00:33.82 bitrate=N/A    frame= 1694 fps=5.7 q=24.8 size=N/A time=00:00:33.88 bitrate=N/A    frame= 1698 fps=5.7 q=24.8 size=N/A time=00:00:33.96 bitrate=N/A    frame= 1702 fps=5.7 q=24.8 size=N/A time=00:00:34.04 bitrate=N/A    frame= 1706 fps=5.7 q=24.8 size=N/A time=00:00:34.12 bitrate=N/A    frame= 1709 fps=5.7 q=24.8 size=N/A time=00:00:34.18 bitrate=N/A    frame= 1713 fps=5.7 q=24.8 size=N/A time=00:00:34.26 bitrate=N/A    frame= 1717 fps=5.7 q=24.8 size=N/A time=00:00:34.34 bitrate=N/A    frame= 1722 fps=5.7 q=24.8 size=N/A time=00:00:34.44 bitrate=N/A    frame= 1726 fps=5.7 q=24.8 size=N/A time=00:00:34.52 bitrate=N/A    frame= 1730 fps=5.7 q=24.8 size=N/A time=00:00:34.60 bitrate=N/A    frame= 1734 fps=5.7 q=24.8 size=N/A time=00:00:34.68 bitrate=N/A    frame= 1738 fps=5.7 q=24.8 size=N/A time=00:00:34.76 bitrate=N/A    frame= 1742 fps=5.7 q=24.8 size=N/A time=00:00:34.84 bitrate=N/A    frame= 1745 fps=5.7 q=24.8 size=N/A time=00:00:34.90 bitrate=N/A    frame= 1749 fps=5.7 q=24.8 size=N/A time=00:00:34.98 bitrate=N/A    frame= 1753 fps=5.7 q=24.8 size=N/A time=00:00:35.06 bitrate=N/A    frame= 1756 fps=5.7 q=24.8 size=N/A time=00:00:35.12 bitrate=N/A    frame= 1760 fps=5.7 q=24.8 size=N/A time=00:00:35.20 bitrate=N/A    frame= 1764 fps=5.7 q=24.8 size=N/A time=00:00:35.28 bitrate=N/A    frame= 1768 fps=5.7 q=24.8 size=N/A time=00:00:35.36 bitrate=N/A    frame= 1772 fps=5.7 q=24.8 size=N/A time=00:00:35.44 bitrate=N/A    frame= 1776 fps=5.7 q=24.8 size=N/A time=00:00:35.52 bitrate=N/A    frame= 1780 fps=5.7 q=24.8 size=N/A time=00:00:35.60 bitrate=N/A    frame= 1783 fps=5.7 q=24.8 size=N/A time=00:00:35.66 bitrate=N/A    frame= 1787 fps=5.7 q=24.8 size=N/A time=00:00:35.74 bitrate=N/A    frame= 1790 fps=5.7 q=24.8 size=N/A time=00:00:35.80 bitrate=N/A    frame= 1793 fps=5.7 q=24.8 size=N/A time=00:00:35.86 bitrate=N/A    frame= 1797 fps=5.8 q=24.8 size=N/A time=00:00:35.94 bitrate=N/A    frame= 1801 fps=5.8 q=24.8 size=N/A time=00:00:36.02 bitrate=N/A    frame= 1805 fps=5.8 q=24.8 size=N/A time=00:00:36.10 bitrate=N/A    frame= 1808 fps=5.8 q=24.8 size=N/A time=00:00:36.16 bitrate=N/A    frame= 1812 fps=5.8 q=24.8 size=N/A time=00:00:36.24 bitrate=N/A    frame= 1816 fps=5.8 q=24.8 size=N/A time=00:00:36.32 bitrate=N/A    frame= 1820 fps=5.8 q=24.8 size=N/A time=00:00:36.40 bitrate=N/A    frame= 1825 fps=5.8 q=24.8 size=N/A time=00:00:36.50 bitrate=N/A    frame= 1829 fps=5.8 q=24.8 size=N/A time=00:00:36.58 bitrate=N/A    frame= 1833 fps=5.8 q=24.8 size=N/A time=00:00:36.66 bitrate=N/A    frame= 1837 fps=5.8 q=24.8 size=N/A time=00:00:36.74 bitrate=N/A    frame= 1841 fps=5.8 q=24.8 size=N/A time=00:00:36.82 bitrate=N/A    frame= 1845 fps=5.8 q=24.8 size=N/A time=00:00:36.90 bitrate=N/A    frame= 1849 fps=5.8 q=24.8 size=N/A time=00:00:36.98 bitrate=N/A    frame= 1853 fps=5.8 q=24.8 size=N/A time=00:00:37.06 bitrate=N/A    frame= 1856 fps=5.8 q=24.8 size=N/A time=00:00:37.12 bitrate=N/A    frame= 1859 fps=5.8 q=24.8 size=N/A time=00:00:37.18 bitrate=N/A    frame= 1862 fps=5.8 q=24.8 size=N/A time=00:00:37.24 bitrate=N/A    frame= 1866 fps=5.8 q=24.8 size=N/A time=00:00:37.32 bitrate=N/A    frame= 1870 fps=5.8 q=24.8 size=N/A time=00:00:37.40 bitrate=N/A    frame= 1873 fps=5.8 q=24.8 size=N/A time=00:00:37.46 bitrate=N/A    frame= 1877 fps=5.8 q=24.8 size=N/A time=00:00:37.54 bitrate=N/A    frame= 1881 fps=5.8 q=24.8 size=N/A time=00:00:37.62 bitrate=N/A    frame= 1884 fps=5.8 q=24.8 size=N/A time=00:00:37.68 bitrate=N/A    frame= 1887 fps=5.8 q=24.8 size=N/A time=00:00:37.74 bitrate=N/A    frame= 1889 fps=5.8 q=24.8 size=N/A time=00:00:37.78 bitrate=N/A    frame= 1890 fps=5.8 q=24.8 Lsize=N/A time=00:00:37.80 bitrate=N/A    
video:1786867kB audio:0kB subtitle:0kB other streams:0kB global headers:0kB muxing overhead: unknown
+ turkic load DJI_0026_30m_szeldontes_vadvalto_arpa_homokmegy_20180603_napos_kalaszos_T4 /home/horvathandras/vatic/vatic/videos/DJI_0026_30m_szeldontes_vadvalto_arpa_homokmegy_20180603_napos_kalaszos_T4 $'Pozit\303\255vROI' $'Negat\303\255vROI' $'T\303\272r\303\241s' '~Friss' '~1-2Hetes' '~Régebbi' '~Egyéb1' '~Egyéb2' '~Egyéb3' $'R\303\241g\303\241s' '~Friss' '~1-2Hetes' '~Régebbi' '~Egyéb1' '~Egyéb2' '~Egyéb3' $'T\303\266r\303\251s' '~Friss' '~1-2Hetes' '~Régebbi' '~Egyéb1' '~Egyéb2' '~Egyéb3' $'Tapos\303\241s' '~Friss' '~1-2Hetes' '~Régebbi' '~Egyéb1' '~Egyéb2' '~Egyéb3' $'Eg\303\251szs\303\251gesN\303\266v\303\251ny' $'Egy\303\251b1' $'Egy\303\251b2' $'Egy\303\251b3' $'Egy\303\251b4' $'Egy\303\251b5' Bizonytalan $'M\305\261vel\305\221\303\272t' $'Gktapos\303\241s' $'Vet\305\221hiba' $'Sz\303\251ld\303\266nt\303\251s' $'J\303\251gk\303\241r' $'Belv\303\255z' $'Asz\303\241ly' $'Er\303\263zi\303\263' $'Egyszik\305\261Gyom' $'K\303\251tszik\305\261Gyom' $'Egy\303\251bN\303\266vv\303\251delmiPR' --offline --title '$filenameNoDot Video' --length 1000 --description 'vatic annotation'
+ turkic publish --offline
+ mkdir /home/horvathandras/vatic/vatic/public/videothumbnails/DJI_0026_30m_szeldontes_vadvalto_arpa_homokmegy_20180603_napos_kalaszos_T4
mkdir: cannot create directory '/home/horvathandras/vatic/vatic/public/videothumbnails/DJI_0026_30m_szeldontes_vadvalto_arpa_homokmegy_20180603_napos_kalaszos_T4': File exists
+ cp /home/horvathandras/vatic/vatic/videos/DJI_0026_30m_szeldontes_vadvalto_arpa_homokmegy_20180603_napos_kalaszos_T4/0/0/31.jpg /home/horvathandras/vatic/vatic/public/videothumbnails/DJI_0026_30m_szeldontes_vadvalto_arpa_homokmegy_20180603_napos_kalaszos_T4/thumb.jpg
e=N/A time=00:00:34.94 bitrate=N/A dup=1 drop=0    frame= 1751 fps=5.8 q=24.8 size=N/A time=00:00:35.02 bitrate=N/A dup=1 drop=0    frame= 1755 fps=5.8 q=24.8 size=N/A time=00:00:35.10 bitrate=N/A dup=1 drop=0    frame= 1758 fps=5.8 q=24.8 size=N/A time=00:00:35.16 bitrate=N/A dup=1 drop=0    frame= 1761 fps=5.8 q=24.8 size=N/A time=00:00:35.22 bitrate=N/A dup=1 drop=0    frame= 1765 fps=5.8 q=24.8 size=N/A time=00:00:35.30 bitrate=N/A dup=1 drop=0    frame= 1768 fps=5.8 q=24.8 size=N/A time=00:00:35.36 bitrate=N/A dup=1 drop=0    frame= 1772 fps=5.8 q=24.8 size=N/A time=00:00:35.44 bitrate=N/A dup=1 drop=0    frame= 1775 fps=5.8 q=24.8 size=N/A time=00:00:35.50 bitrate=N/A dup=1 drop=0    frame= 1779 fps=5.8 q=24.8 size=N/A time=00:00:35.58 bitrate=N/A dup=1 drop=0    frame= 1782 fps=5.8 q=24.8 size=N/A time=00:00:35.64 bitrate=N/A dup=1 drop=0    frame= 1785 fps=5.8 q=24.8 size=N/A time=00:00:35.70 bitrate=N/A dup=1 drop=0    frame= 1788 fps=5.8 q=24.8 size=N/A time=00:00:35.76 bitrate=N/A dup=1 drop=0    frame= 1791 fps=5.8 q=24.8 size=N/A time=00:00:35.82 bitrate=N/A dup=1 drop=0    frame= 1794 fps=5.8 q=24.8 size=N/A time=00:00:35.88 bitrate=N/A dup=1 drop=0    frame= 1797 fps=5.8 q=24.8 size=N/A time=00:00:35.94 bitrate=N/A dup=1 drop=0    frame= 1800 fps=5.8 q=24.8 size=N/A time=00:00:36.00 bitrate=N/A dup=1 drop=0    frame= 1804 fps=5.8 q=24.8 size=N/A time=00:00:36.08 bitrate=N/A dup=1 drop=0    frame= 1808 fps=5.8 q=24.8 size=N/A time=00:00:36.16 bitrate=N/A dup=1 drop=0    frame= 1812 fps=5.8 q=24.8 size=N/A time=00:00:36.24 bitrate=N/A dup=1 drop=0    frame= 1816 fps=5.8 q=24.8 size=N/A time=00:00:36.32 bitrate=N/A dup=1 drop=0    frame= 1819 fps=5.8 q=24.8 size=N/A time=00:00:36.38 bitrate=N/A dup=1 drop=0    frame= 1822 fps=5.8 q=24.8 size=N/A time=00:00:36.44 bitrate=N/A dup=1 drop=0    frame= 1825 fps=5.8 q=24.8 size=N/A time=00:00:36.50 bitrate=N/A dup=1 drop=0    frame= 1828 fps=5.8 q=24.8 size=N/A time=00:00:36.56 bitrate=N/A dup=1 drop=0    frame= 1832 fps=5.8 q=24.8 size=N/A time=00:00:36.64 bitrate=N/A dup=1 drop=0    frame= 1836 fps=5.8 q=24.8 size=N/A time=00:00:36.72 bitrate=N/A dup=1 drop=0    frame= 1840 fps=5.8 q=24.8 size=N/A time=00:00:36.80 bitrate=N/A dup=1 drop=0    frame= 1844 fps=5.8 q=24.8 size=N/A time=00:00:36.88 bitrate=N/A dup=1 drop=0    frame= 1848 fps=5.8 q=24.8 size=N/A time=00:00:36.96 bitrate=N/A dup=1 drop=0    frame= 1852 fps=5.8 q=24.8 size=N/A time=00:00:37.04 bitrate=N/A dup=1 drop=0    frame= 1856 fps=5.8 q=24.8 size=N/A time=00:00:37.12 bitrate=N/A dup=1 drop=0    frame= 1859 fps=5.8 q=24.8 size=N/A time=00:00:37.18 bitrate=N/A dup=1 drop=0    frame= 1862 fps=5.8 q=24.8 size=N/A time=00:00:37.24 bitrate=N/A dup=1 drop=0    frame= 1865 fps=5.8 q=24.8 size=N/A time=00:00:37.30 bitrate=N/A dup=1 drop=0    frame= 1868 fps=5.8 q=24.8 size=N/A time=00:00:37.36 bitrate=N/A dup=1 drop=0    frame= 1871 fps=5.8 q=24.8 size=N/A time=00:00:37.42 bitrate=N/A dup=1 drop=0    frame= 1874 fps=5.8 q=24.8 size=N/A time=00:00:37.48 bitrate=N/A dup=1 drop=0    frame= 1878 fps=5.8 q=24.8 size=N/A time=00:00:37.56 bitrate=N/A dup=1 drop=0    frame= 1881 fps=5.8 q=24.8 size=N/A time=00:00:37.62 bitrate=N/A dup=1 drop=0    frame= 1885 fps=5.8 q=24.8 size=N/A time=00:00:37.70 bitrate=N/A dup=1 drop=0    frame= 1889 fps=5.8 q=24.8 size=N/A time=00:00:37.78 bitrate=N/A dup=1 drop=0    frame= 1890 fps=5.8 q=24.8 Lsize=N/A time=00:00:37.80 bitrate=N/A dup=1 drop=0    
video:1786845kB audio:0kB subtitle:0kB other streams:0kB global headers:0kB muxing overhead: unknown
+ turkic load DJI_0026_30m_szeldontes_vadvalto_arpa_homokmegy_20180603_napos_kalaszos_T4 /home/horvathandras/vatic/vatic/videos/DJI_0026_30m_szeldontes_vadvalto_arpa_homokmegy_20180603_napos_kalaszos_T4 $'Pozit\303\255vROI' $'Negat\303\255vROI' $'T\303\272r\303\241s' '~Friss' '~1-2Hetes' '~Régebbi' '~Egyéb1' '~Egyéb2' '~Egyéb3' $'R\303\241g\303\241s' '~Friss' '~1-2Hetes' '~Régebbi' '~Egyéb1' '~Egyéb2' '~Egyéb3' $'T\303\266r\303\251s' '~Friss' '~1-2Hetes' '~Régebbi' '~Egyéb1' '~Egyéb2' '~Egyéb3' $'Tapos\303\241s' '~Friss' '~1-2Hetes' '~Régebbi' '~Egyéb1' '~Egyéb2' '~Egyéb3' $'Eg\303\251szs\303\251gesN\303\266v\303\251ny' $'Egy\303\251b1' $'Egy\303\251b2' $'Egy\303\251b3' $'Egy\303\251b4' $'Egy\303\251b5' Bizonytalan $'M\305\261vel\305\221\303\272t' $'Gktapos\303\241s' $'Vet\305\221hiba' $'Sz\303\251ld\303\266nt\303\251s' $'J\303\251gk\303\241r' $'Belv\303\255z' $'Asz\303\241ly' $'Er\303\263zi\303\263' $'Egyszik\305\261Gyom' $'K\303\251tszik\305\261Gyom' $'Egy\303\251bN\303\266vv\303\251delmiPR' --offline --title '$filenameNoDot Video' --length 1000 --description 'vatic annotation'
+ turkic publish --offline
+ mkdir /home/horvathandras/vatic/vatic/public/videothumbnails/DJI_0026_30m_szeldontes_vadvalto_arpa_homokmegy_20180603_napos_kalaszos_T4
+ cp /home/horvathandras/vatic/vatic/videos/DJI_0026_30m_szeldontes_vadvalto_arpa_homokmegy_20180603_napos_kalaszos_T4/0/0/31.jpg /home/horvathandras/vatic/vatic/public/videothumbnails/DJI_0026_30m_szeldontes_vadvalto_arpa_homokmegy_20180603_napos_kalaszos_T4/thumb.jpg
